<svg xmlns="http://www.w3.org/2000/svg" style="display: none;">

    
  <symbol id="dashboard" viewBox="0 0 17 17" xmlns="http://www.w3.org/2000/svg">
      <path d="M2.52344 7.96875C2.92525 7.96875 3.28893 7.80753 3.55766 7.54865L5.03196 8.28574C5.02457 8.34579 5.01367 8.4048 5.01367 8.4668C5.01367 9.29065 5.68396 9.96094 6.50781 9.96094C7.33167 9.96094 8.00195 9.29065 8.00195 8.4668C8.00195 8.23684 7.9454 8.02154 7.85215 7.82673L9.85212 5.82676C10.0469 5.92001 10.2622 5.97656 10.4922 5.97656C11.316 5.97656 11.9863 5.30627 11.9863 4.48242C11.9863 4.3273 11.9558 4.18061 11.9118 4.03989L13.6495 2.73692C13.8866 2.89529 14.1707 2.98828 14.4766 2.98828C15.3004 2.98828 15.9707 2.31799 15.9707 1.49414C15.9707 0.670288 15.3004 0 14.4766 0C13.6527 0 12.9824 0.670288 12.9824 1.49414C12.9824 1.64926 13.0129 1.79595 13.057 1.93668L11.3193 3.23964C11.0822 3.08128 10.798 2.98828 10.4922 2.98828C9.66833 2.98828 8.99805 3.65857 8.99805 4.48242C8.99805 4.71238 9.0546 4.92768 9.14785 5.12249L7.14788 7.12246C6.95307 7.02921 6.73777 6.97266 6.50781 6.97266C6.106 6.97266 5.74232 7.13387 5.47359 7.39275L3.99929 6.65567C4.00668 6.59562 4.01758 6.53661 4.01758 6.47461C4.01758 5.65076 3.34729 4.98047 2.52344 4.98047C1.69958 4.98047 1.0293 5.65076 1.0293 6.47461C1.0293 7.29846 1.69958 7.96875 2.52344 7.96875V7.96875Z"/>
      <path d="M16.502 16.0039H15.9707V5.47852C15.9707 5.20329 15.7479 4.98047 15.4727 4.98047H13.4805C13.2052 4.98047 12.9824 5.20329 12.9824 5.47852V16.0039H11.9863V8.4668C11.9863 8.19157 11.7635 7.96875 11.4883 7.96875H9.49609C9.22087 7.96875 8.99805 8.19157 8.99805 8.4668V16.0039H8.00195V12.4512C8.00195 12.1759 7.77913 11.9531 7.50391 11.9531H5.51172C5.2365 11.9531 5.01367 12.1759 5.01367 12.4512V16.0039H4.01758V10.459C4.01758 10.1838 3.79475 9.96094 3.51953 9.96094H1.52734C1.25212 9.96094 1.0293 10.1838 1.0293 10.459V16.0039H0.498047C0.222824 16.0039 0 16.2267 0 16.502C0 16.7772 0.222824 17 0.498047 17H16.502C16.7772 17 17 16.7772 17 16.502C17 16.2267 16.7772 16.0039 16.502 16.0039Z"/>
  </symbol>

  <symbol id="card-company" viewBox="0 0 19 19" xmlns="http://www.w3.org/2000/svg">
      <path d="M9.31211 0C4.16964 0 0 4.16964 0 9.31211C0 14.4546 4.16964 18.625 9.31211 18.625C14.4546 18.625 18.625 14.4546 18.625 9.31211C18.625 4.16964 14.4546 0 9.31211 0ZM11.2507 14.4325C10.7714 14.6217 10.3898 14.7652 10.1036 14.8645C9.81823 14.9639 9.48633 15.0135 9.10871 15.0135C8.52848 15.0135 8.07675 14.8716 7.7551 14.5886C7.43344 14.3056 7.27341 13.9469 7.27341 13.5109C7.27341 13.3414 7.28523 13.168 7.30888 12.9914C7.33332 12.8148 7.37195 12.6161 7.42477 12.393L8.02471 10.2739C8.07753 10.0705 8.12326 9.87736 8.15952 9.69761C8.19579 9.51629 8.21313 9.34995 8.21313 9.19858C8.21313 8.92896 8.15716 8.73976 8.046 8.63333C7.93326 8.5269 7.7212 8.47487 7.40506 8.47487C7.25054 8.47487 7.0913 8.49773 6.92811 8.54582C6.76649 8.59549 6.62616 8.64042 6.51106 8.68457L6.66952 8.03181C7.06213 7.87177 7.43817 7.7346 7.79688 7.62107C8.15558 7.50597 8.49458 7.44921 8.81386 7.44921C9.39015 7.44921 9.83479 7.58954 10.1478 7.86704C10.4592 8.14533 10.6161 8.50719 10.6161 8.95183C10.6161 9.04406 10.605 9.20647 10.5837 9.43824C10.5624 9.67081 10.5222 9.88288 10.4639 10.0776L9.86711 12.1904C9.81823 12.3599 9.77487 12.5538 9.73545 12.7706C9.69683 12.9874 9.6779 13.153 9.6779 13.2642C9.6779 13.5448 9.74018 13.7364 9.86632 13.8381C9.99088 13.9398 10.2093 13.991 10.5183 13.991C10.6641 13.991 10.8273 13.965 11.0118 13.9145C11.1947 13.8641 11.3272 13.8192 11.4107 13.7805L11.2507 14.4325ZM11.145 5.85672C10.8668 6.11531 10.5317 6.2446 10.1399 6.2446C9.74886 6.2446 9.41144 6.11531 9.13078 5.85672C8.8517 5.59814 8.71059 5.28359 8.71059 4.91621C8.71059 4.54962 8.85249 4.23428 9.13078 3.97333C9.41144 3.7116 9.74886 3.58152 10.1399 3.58152C10.5317 3.58152 10.8675 3.7116 11.145 3.97333C11.4233 4.23428 11.5629 4.54962 11.5629 4.91621C11.5629 5.28438 11.4233 5.59814 11.145 5.85672Z"/>
  </symbol>

  <symbol id="addresses" viewBox="0 0 13 18" xmlns="http://www.w3.org/2000/svg">
      <path d="M6.3 8.55C5.70326 8.55 5.13097 8.31295 4.70901 7.89099C4.28705 7.46903 4.05 6.89674 4.05 6.3C4.05 5.70326 4.28705 5.13097 4.70901 4.70901C5.13097 4.28705 5.70326 4.05 6.3 4.05C6.89674 4.05 7.46903 4.28705 7.89099 4.70901C8.31295 5.13097 8.55 5.70326 8.55 6.3C8.55 6.59547 8.4918 6.88806 8.37873 7.16104C8.26566 7.43402 8.09992 7.68206 7.89099 7.89099C7.68206 8.09992 7.43402 8.26566 7.16104 8.37873C6.88806 8.4918 6.59547 8.55 6.3 8.55ZM6.3 0C4.62914 0 3.02671 0.663748 1.84523 1.84523C0.663748 3.02671 0 4.62914 0 6.3C0 11.025 6.3 18 6.3 18C6.3 18 12.6 11.025 12.6 6.3C12.6 4.62914 11.9363 3.02671 10.7548 1.84523C9.57329 0.663748 7.97086 0 6.3 0Z"/>
  </symbol>
  <symbol id="catalog"  viewBox="0 0 16 16" xmlns="http://www.w3.org/2000/svg">
      <path fill-rule="evenodd" clip-rule="evenodd" d="M12 12H16V16H12V12ZM6 12H10V16H6V12ZM0 12H4V16H0V12ZM12 6H16V10H12V6ZM6 6H10V10H6V6ZM0 6H4V10H0V6ZM12 0H16V4H12V0ZM6 0H10V4H6V0ZM0 0H4V4H0V0Z" />
  </symbol>
  <symbol id="orders" viewBox="0 0 19 17" xmlns="http://www.w3.org/2000/svg">
      <path d="M10.2 9.06667C10.8012 9.06667 11.3777 9.30548 11.8028 9.73056C12.2279 10.1556 12.4667 10.7322 12.4667 11.3333V13.0333C12.4667 15.3612 10.1003 17 6.23333 17C2.3664 17 0 15.3612 0 13.0333V11.3333C0 10.7322 0.238809 10.1556 0.663891 9.73056C1.08897 9.30548 1.66551 9.06667 2.26667 9.06667H10.2ZM15.8667 9.06667C16.4678 9.06667 17.0444 9.30548 17.4694 9.73056C17.8945 10.1556 18.1333 10.7322 18.1333 11.3333V11.9C18.1333 14.2675 16.3563 15.8667 13.0333 15.8667C12.8735 15.8667 12.716 15.8633 12.5641 15.8553C13.175 15.1447 13.5365 14.2845 13.5921 13.3042L13.6 13.0333V11.3333C13.6 10.5491 13.3348 9.826 12.8883 9.2514L12.733 9.06667H15.8667ZM6.23333 0C6.75424 -7.76216e-09 7.27005 0.102601 7.75131 0.301944C8.23257 0.501288 8.66985 0.793471 9.03819 1.16181C9.40653 1.53015 9.69871 1.96743 9.89806 2.44869C10.0974 2.92995 10.2 3.44576 10.2 3.96667C10.2 4.48758 10.0974 5.00339 9.89806 5.48464C9.69871 5.9659 9.40653 6.40318 9.03819 6.77152C8.66985 7.13986 8.23257 7.43205 7.75131 7.63139C7.27005 7.83073 6.75424 7.93333 6.23333 7.93333C5.18131 7.93333 4.17237 7.51542 3.42848 6.77152C2.68458 6.02763 2.26667 5.01869 2.26667 3.96667C2.26667 2.91464 2.68458 1.9057 3.42848 1.16181C4.17237 0.417915 5.18131 1.56764e-08 6.23333 0ZM14.1667 2.26667C14.9181 2.26667 15.6388 2.56518 16.1701 3.09653C16.7015 3.62788 17 4.34855 17 5.1C17 5.85145 16.7015 6.57212 16.1701 7.10347C15.6388 7.63482 14.9181 7.93333 14.1667 7.93333C13.4152 7.93333 12.6945 7.63482 12.1632 7.10347C11.6318 6.57212 11.3333 5.85145 11.3333 5.1C11.3333 4.34855 11.6318 3.62788 12.1632 3.09653C12.6945 2.56518 13.4152 2.26667 14.1667 2.26667Z" />
  </symbol>
  <symbol id="actions" viewBox="0 0 19 20" xmlns="http://www.w3.org/2000/svg">
      <path fill-rule="evenodd" clip-rule="evenodd" d="M16.0853 1.74828C16.0495 1.57081 15.9689 1.40543 15.8512 1.26784C15.7336 1.13025 15.5827 1.025 15.4129 0.962094C15.2431 0.899185 15.0601 0.880698 14.8812 0.908388C14.7023 0.936078 14.5334 1.00903 14.3906 1.12031L7.09221 6.80921L3.17244 7.59789C2.34365 7.76464 1.61504 8.25381 1.14691 8.95777C0.678776 9.66173 0.509466 10.5228 0.676223 11.3516C0.842981 12.1804 1.33215 12.909 2.03611 13.3772C2.74007 13.8453 3.60117 14.0146 4.42996 13.8478L4.72163 13.7892L7.68057 18.9554C7.79143 19.149 7.96042 19.3028 8.16358 19.395C8.36674 19.4872 8.59376 19.5131 8.81246 19.469L9.85412 19.2595C10.1304 19.2039 10.3733 19.0408 10.5293 18.8062C10.6853 18.5715 10.7418 18.2845 10.6862 18.0082L9.76779 13.4437L17.2804 15.4827C17.4551 15.5301 17.6391 15.5321 17.8148 15.4884C17.9905 15.4447 18.1521 15.3569 18.2843 15.2332C18.4166 15.1096 18.515 14.9542 18.5703 14.7818C18.6256 14.6094 18.6359 14.4257 18.6003 14.2482L16.0853 1.74828Z" />
  </symbol>
  <symbol id="news"  viewBox="0 0 17 18" xmlns="http://www.w3.org/2000/svg">
      <path d="M14.1429 15.4286V1.60714C14.1429 1.39609 14.1013 1.1871 14.0205 0.992116C13.9398 0.797128 13.8214 0.619958 13.6721 0.470721C13.5229 0.321484 13.3457 0.203103 13.1507 0.122336C12.9558 0.04157 12.7468 0 12.5357 0H1.60714C1.1809 0 0.772119 0.169323 0.470721 0.470721C0.169324 0.772119 0 1.1809 0 1.60714V15.75C0 16.3467 0.237053 16.919 0.65901 17.341C1.08097 17.7629 1.65326 18 2.25 18H16.0252C16.0313 18.0001 16.0373 17.9989 16.043 17.9966C16.0486 17.9943 16.0537 17.9909 16.058 17.9866C16.0623 17.9823 16.0657 17.9772 16.068 17.9715C16.0703 17.9659 16.0715 17.9599 16.0714 17.9538C16.0714 17.9437 16.068 17.9339 16.0619 17.9259C16.0557 17.9179 16.047 17.9122 16.0373 17.9096C15.4935 17.7604 15.0136 17.4369 14.6714 16.9887C14.3292 16.5406 14.1435 15.9925 14.1429 15.4286ZM2.57143 3.85714C2.57143 3.68665 2.63916 3.52313 2.75972 3.40257C2.88028 3.28201 3.04379 3.21429 3.21429 3.21429H5.78572C5.95621 3.21429 6.11972 3.28201 6.24028 3.40257C6.36084 3.52313 6.42857 3.68665 6.42857 3.85714V6.42857C6.42857 6.59907 6.36084 6.76258 6.24028 6.88314C6.11972 7.0037 5.95621 7.07143 5.78572 7.07143H3.21429C3.04379 7.07143 2.88028 7.0037 2.75972 6.88314C2.63916 6.76258 2.57143 6.59907 2.57143 6.42857V3.85714ZM10.9286 14.7857H3.23237C2.88643 14.7857 2.58951 14.5197 2.57223 14.1738C2.56804 14.0869 2.58155 14 2.61192 13.9185C2.6423 13.8369 2.68892 13.7624 2.74895 13.6994C2.80898 13.6364 2.88118 13.5862 2.96116 13.552C3.04115 13.5177 3.12726 13.5 3.21429 13.5H10.9105C11.2564 13.5 11.5534 13.766 11.5706 14.1119C11.5748 14.1988 11.5613 14.2857 11.5309 14.3673C11.5006 14.4488 11.4539 14.5233 11.3939 14.5863C11.3339 14.6493 11.2617 14.6995 11.1817 14.7338C11.1017 14.768 11.0156 14.7857 10.9286 14.7857ZM10.9286 12.2143H3.23237C2.88643 12.2143 2.58951 11.9483 2.57223 11.6024C2.56804 11.5154 2.58155 11.4286 2.61192 11.347C2.6423 11.2655 2.68892 11.191 2.74895 11.128C2.80898 11.065 2.88118 11.0148 2.96116 10.9805C3.04115 10.9463 3.12726 10.9286 3.21429 10.9286H10.9105C11.2564 10.9286 11.5534 11.1946 11.5706 11.5405C11.5748 11.6274 11.5613 11.7143 11.5309 11.7958C11.5006 11.8774 11.4539 11.9519 11.3939 12.0149C11.3339 12.0779 11.2617 12.1281 11.1817 12.1623C11.1017 12.1966 11.0156 12.2143 10.9286 12.2143ZM10.9286 9.64286H3.23237C2.88643 9.64286 2.58951 9.37687 2.57223 9.03094C2.56804 8.94402 2.58155 8.85715 2.61192 8.7756C2.6423 8.69406 2.68892 8.61952 2.74895 8.55653C2.80898 8.49353 2.88118 8.44337 2.96116 8.4091C3.04115 8.37483 3.12726 8.35715 3.21429 8.35714H10.9105C11.2564 8.35714 11.5534 8.62312 11.5706 8.96906C11.5748 9.05598 11.5613 9.14285 11.5309 9.22439C11.5006 9.30594 11.4539 9.38048 11.3939 9.44347C11.3339 9.50647 11.2617 9.55663 11.1817 9.5909C11.1017 9.62517 11.0156 9.64285 10.9286 9.64286ZM10.9286 7.07143H8.37522C8.02929 7.07143 7.73237 6.80545 7.71509 6.45951C7.7109 6.37259 7.72441 6.28572 7.75478 6.20417C7.78516 6.12263 7.83177 6.0481 7.8918 5.9851C7.95184 5.9221 8.02403 5.87194 8.10402 5.83767C8.18401 5.8034 8.27012 5.78572 8.35714 5.78571H10.9105C11.2564 5.78571 11.5534 6.0517 11.5706 6.39763C11.5748 6.48455 11.5613 6.57142 11.5309 6.65297C11.5006 6.73451 11.4539 6.80905 11.3939 6.87205C11.3339 6.93504 11.2617 6.9852 11.1817 7.01947C11.1017 7.05374 11.0156 7.07142 10.9286 7.07143ZM10.9286 4.5H8.37522C8.02929 4.5 7.73237 4.23402 7.71509 3.88808C7.7109 3.80116 7.72441 3.71429 7.75478 3.63275C7.78516 3.5512 7.83177 3.47667 7.8918 3.41367C7.95184 3.35067 8.02403 3.30051 8.10402 3.26624C8.18401 3.23197 8.27012 3.21429 8.35714 3.21429H10.9105C11.2564 3.21429 11.5534 3.48027 11.5706 3.82621C11.5748 3.91313 11.5613 3.99999 11.5309 4.08154C11.5006 4.16309 11.4539 4.23762 11.3939 4.30062C11.3339 4.36362 11.2617 4.41377 11.1817 4.44804C11.1017 4.48232 11.0156 4.49999 10.9286 4.5Z" />
  </symbol>
  <symbol id="maps" viewBox="0 0 20 19" xmlns="http://www.w3.org/2000/svg">
      <path d="M5.91793 1.27575V14.6877L1.26974 17.9565C1.1567 18.036 1.02514 18.0851 0.887671 18.0991C0.750202 18.1132 0.61143 18.0917 0.48465 18.0367C0.357869 17.9818 0.247327 17.8951 0.163613 17.7852C0.0799 17.6753 0.0258203 17.5457 0.00655519 17.4088L-0.000976562 17.2969V5.85615C-0.000969567 5.74557 0.0217654 5.63617 0.0658172 5.53474C0.109869 5.43331 0.174298 5.34201 0.255104 5.26652L0.341182 5.19658L5.91793 1.27575ZM19.3611 1.58778L19.3686 1.69968V13.1405C19.3686 13.2511 19.3459 13.3605 19.3018 13.4619C19.2578 13.5633 19.1934 13.6546 19.1126 13.7301L19.0265 13.8L13.4497 17.7187V4.30568L18.0979 1.04011C18.211 0.960644 18.3425 0.911534 18.48 0.89749C18.6175 0.883445 18.7562 0.904936 18.883 0.959903C19.0098 1.01487 19.1203 1.10147 19.204 1.21141C19.2878 1.32135 19.3418 1.45095 19.3611 1.58778ZM7.53189 1.27683L11.8358 4.30245V17.7166L7.53189 14.6888V1.27683Z" />
  </symbol>
  <symbol id="push"  viewBox="0 0 17 19" xmlns="http://www.w3.org/2000/svg">
      <path d="M8.26087 19C9.56343 19 10.62 17.9368 10.62 16.625H5.90173C5.90173 17.9368 6.95831 19 8.26087 19ZM16.2042 13.4444C15.4917 12.674 14.1585 11.515 14.1585 7.71875C14.1585 4.83535 12.1494 2.52715 9.44025 1.96086V1.1875C9.44025 0.531777 8.91215 0 8.26087 0C7.60959 0 7.08149 0.531777 7.08149 1.1875V1.96086C4.37237 2.52715 2.36322 4.83535 2.36322 7.71875C2.36322 11.515 1.03005 12.674 0.317552 13.4444C0.0962791 13.6837 -0.00181844 13.9698 2.54975e-05 14.25C0.00408216 14.8586 0.478712 15.4375 1.18383 15.4375H15.3379C16.043 15.4375 16.518 14.8586 16.5217 14.25C16.5236 13.9698 16.4255 13.6833 16.2042 13.4444Z" />
  </symbol>
  <symbol id="settings" viewBox="0 0 20 20" xmlns="http://www.w3.org/2000/svg">
      <path d="M18.8471 12.4032L17.1343 11.4113C17.3072 10.4758 17.3072 9.51613 17.1343 8.58065L18.8471 7.58872C19.0441 7.47582 19.1325 7.24195 19.0682 7.02421C18.6219 5.58873 17.862 4.29034 16.8689 3.2097C16.7161 3.04438 16.4668 3.00406 16.2738 3.11696L14.561 4.10889C13.8413 3.48793 13.0131 3.00809 12.1165 2.69358V0.713745C12.1165 0.487939 11.9597 0.290359 11.7385 0.241972C10.263 -0.0886716 8.7512 -0.0725426 7.34799 0.241972C7.12686 0.290359 6.97005 0.487939 6.97005 0.713745V2.69761C6.07747 3.01616 5.24921 3.49599 4.52549 4.11293L2.81671 3.12099C2.6197 3.00809 2.37444 3.04438 2.22166 3.21374C1.22856 4.29034 0.468652 5.58873 0.0223596 7.02824C-0.0459915 7.24598 0.0464836 7.47985 0.243496 7.59275L1.95629 8.58468C1.78341 9.52016 1.78341 10.4798 1.95629 11.4153L0.243496 12.4072C0.0464836 12.5202 -0.0419708 12.754 0.0223596 12.9718C0.468652 14.4072 1.22856 15.7056 2.22166 16.7863C2.37444 16.9516 2.62372 16.9919 2.81671 16.879L4.52951 15.8871C5.24921 16.508 6.07747 16.9879 6.97407 17.3024V19.2863C6.97407 19.5121 7.13088 19.7096 7.35201 19.758C8.82759 20.0887 10.3394 20.0725 11.7426 19.758C11.9637 19.7096 12.1205 19.5121 12.1205 19.2863V17.3024C13.0131 16.9838 13.8413 16.504 14.5651 15.8871L16.2779 16.879C16.4749 16.9919 16.7201 16.9556 16.8729 16.7863C17.866 15.7097 18.6259 14.4113 19.0722 12.9718C19.1325 12.75 19.0441 12.5161 18.8471 12.4032ZM9.54327 13.2218C7.77016 13.2218 6.32675 11.7742 6.32675 9.99597C6.32675 8.21775 7.77016 6.77017 9.54327 6.77017C11.3164 6.77017 12.7598 8.21775 12.7598 9.99597C12.7598 11.7742 11.3164 13.2218 9.54327 13.2218Z" />
  </symbol>

</svg>
