<svg width="17" height="21" viewBox="0 0 17 21" fill="none" xmlns="http://www.w3.org/2000/svg">
<path d="M1.2435 6.50781C0.897335 6.50781 0.603624 6.62853 0.362189 6.86996C0.120754 7.1114 0 7.40111 0 7.73925V12.931C0 13.2776 0.120718 13.5711 0.362189 13.8125C0.603624 14.054 0.897335 14.1747 1.2435 14.1747C1.58942 14.1747 1.88135 14.054 2.11904 13.8125C2.35626 13.5711 2.4752 13.2776 2.4752 12.931V7.73925C2.4752 7.40108 2.35448 7.1114 2.11301 6.86996C1.87154 6.62853 1.58164 6.50781 1.2435 6.50781Z" fill="#9B9B9B"/>
<path d="M11.2404 1.84716L12.0977 0.265731C12.154 0.161034 12.1339 0.0807489 12.0375 0.0242953C11.9327 -0.0243841 11.8523 0.000282556 11.796 0.0965516L10.9268 1.69062C10.1619 1.35244 9.3529 1.18305 8.49981 1.18305C7.64654 1.18305 6.83748 1.35248 6.07288 1.69062L5.20359 0.0965516C5.1471 0.000282556 5.06664 -0.0241661 4.96216 0.0242953C4.86545 0.0810032 4.84544 0.161034 4.90193 0.265731L5.75923 1.84716C4.88994 2.29047 4.1976 2.90786 3.68247 3.70068C3.16734 4.49394 2.90967 5.36079 2.90967 6.30278H14.0778C14.0778 5.36101 13.8201 4.49412 13.305 3.70068C12.7898 2.90786 12.1015 2.29047 11.2404 1.84716ZM6.28409 4.14737C6.19139 4.2403 6.08066 4.28654 5.95195 4.28654C5.82298 4.28654 5.71451 4.2403 5.62601 4.14737C5.53752 4.05488 5.49327 3.94459 5.49327 3.81544C5.49327 3.68673 5.53752 3.57622 5.62601 3.48351C5.71451 3.39102 5.82324 3.34478 5.95195 3.34478C6.08066 3.34478 6.19139 3.39102 6.28409 3.48351C6.37659 3.57644 6.42305 3.68673 6.42305 3.81544C6.42279 3.94437 6.37637 4.05488 6.28409 4.14737ZM11.3731 4.14737C11.2844 4.2403 11.1757 4.28654 11.0472 4.28654C10.9182 4.28654 10.8075 4.2403 10.715 4.14737C10.6223 4.05488 10.5761 3.94459 10.5761 3.81544C10.5761 3.68673 10.6223 3.57622 10.715 3.48351C10.8075 3.39102 10.9182 3.34478 11.0472 3.34478C11.1759 3.34478 11.2844 3.39102 11.3731 3.48351C11.4617 3.57644 11.5059 3.68673 11.5059 3.81544C11.5059 3.94437 11.4617 4.05488 11.3731 4.14737Z" fill="#9B9B9B"/>
<path d="M2.95801 14.7784C2.95801 15.149 3.08672 15.4627 3.34417 15.7202C3.60185 15.9777 3.91557 16.1064 4.28594 16.1064H5.17946L5.1917 18.8475C5.1917 19.1936 5.31242 19.4875 5.55385 19.729C5.79529 19.9705 6.08522 20.0912 6.42314 20.0912C6.76909 20.0912 7.06299 19.9705 7.30446 19.729C7.54593 19.4875 7.66665 19.1936 7.66665 18.8475V16.1066H9.33279V18.8475C9.33279 19.1936 9.45347 19.4875 9.69494 19.729C9.93641 19.9705 10.2301 20.0912 10.5763 20.0912C10.9222 20.0912 11.2161 19.9705 11.4576 19.729C11.699 19.4875 11.8197 19.1936 11.8197 18.8475V16.1066H12.7253C13.0875 16.1066 13.3972 15.9779 13.6551 15.7204C13.9125 15.463 14.0413 15.1492 14.0413 14.7787V6.73706H2.95801V14.7784Z" fill="#9B9B9B"/>
<path d="M15.7564 6.50781C15.4182 6.50781 15.1285 6.62675 14.8871 6.86397C14.6456 7.10163 14.5249 7.39356 14.5249 7.73925V12.931C14.5249 13.2776 14.6456 13.5711 14.8871 13.8125C15.1285 14.054 15.4184 14.1747 15.7564 14.1747C16.1023 14.1747 16.3962 14.054 16.6377 13.8125C16.8792 13.5711 16.9998 13.2776 16.9998 12.931V7.73925C16.9998 7.39352 16.8792 7.10163 16.6377 6.86397C16.3962 6.62675 16.1023 6.50781 15.7564 6.50781Z" fill="#9B9B9B"/>
</svg>
