<svg width="16" height="19" viewBox="0 0 16 19" fill="none" xmlns="http://www.w3.org/2000/svg">
<path d="M11.5111 0C10.5125 0.0690734 9.34525 0.708295 8.66505 1.54069C8.04456 2.29581 7.53412 3.41738 7.73315 4.50733C8.82427 4.54128 9.95169 3.88684 10.605 3.0404C11.2161 2.25249 11.6785 1.13795 11.5111 0Z" fill="#9B9B9B"/>
<path d="M15.4579 6.28451C14.4991 5.08216 13.1516 4.3844 11.879 4.3844C10.199 4.3844 9.48837 5.1887 8.32115 5.1887C7.11763 5.1887 6.20329 4.38674 4.7504 4.38674C3.32328 4.38674 1.80366 5.25894 0.840149 6.75046C-0.514392 8.85076 -0.282586 12.7997 1.91254 16.1632C2.69811 17.3667 3.74708 18.7201 5.11919 18.7318C6.34026 18.7435 6.68446 17.9486 8.33871 17.9404C9.99296 17.931 10.3067 18.7423 11.5254 18.7294C12.8987 18.7189 14.0051 17.2192 14.7906 16.0157C15.3538 15.1528 15.5633 14.7185 16 13.7444C12.8238 12.5351 12.3145 8.01837 15.4579 6.28451Z" fill="#9B9B9B"/>
</svg>
