<svg width="24" height="22" viewBox="0 0 24 22" fill="none" xmlns="http://www.w3.org/2000/svg">
<path d="M4.64994 21.9455H5.14487V21.7852H4.64994V21.9455ZM22.8421 18.1039H23.1734V17.6249H23.0077C22.9524 17.7849 22.8974 17.944 22.8421 18.1039ZM23.0077 7.2229C22.8222 7.35906 22.9811 7.20128 22.8421 7.38303H23.1734C23.0732 7.06368 23.1963 7.24579 23.0077 7.06368V7.2229ZM0.01796 3.06423V3.3823H0.183209C0.0838703 3.06423 0.206487 3.24547 0.01796 3.06423ZM19.2027 0.502009C19.5336 0.599556 19.3452 0.479485 19.5336 0.662408C19.2027 0.565767 19.3924 0.684932 19.2027 0.502009ZM19.2027 21.4644C19.5336 21.5616 19.3452 21.4426 19.5336 21.6248C19.2027 21.5283 19.3924 21.6462 19.2027 21.4644ZM14.7381 0.502009C14.4482 0.639345 14.3234 0.410868 14.241 0.34225H14.7381V0.502009ZM12.4225 0.662408H12.2577V0.34225H12.4225V0.662408ZM8.123 0.502009C8.45284 0.599556 8.26443 0.479485 8.45284 0.662408C8.123 0.565767 8.3103 0.684932 8.123 0.502009ZM8.123 21.4644C8.45284 21.5616 8.26443 21.4426 8.45284 21.6248C8.123 21.5283 8.3103 21.6462 8.123 21.4644ZM6.63305 0.662408H6.46796V0.34225H6.63305V0.662408ZM3.82181 0.502009C3.53258 0.639345 3.40739 0.410868 3.32578 0.34225H3.82181V0.502009ZM23.1734 12.9837H23.0077V12.6646H22.8421C22.6885 12.1033 23.1081 12.1809 23.1734 12.0239V9.30406H22.8421V8.66375H22.6763C22.7311 8.55598 22.7871 8.45086 22.8421 8.34256H22.6763V8.02294H22.5111C22.4478 7.75477 22.6697 7.73868 22.6763 7.70382V6.90261C22.8421 6.85062 23.0077 6.79591 23.1734 6.74339V3.86219H22.8421C22.9212 3.48783 23.3685 2.74565 23.1734 2.26262H23.0077C22.8664 2.01201 22.8748 1.87649 22.8421 1.46244H23.1734V0.34225H22.6763V0.0214572C22.4557 0.0761976 22.2363 0.128824 22.015 0.181988C22.015 0.181988 21.8427 -0.0744107 21.5183 0.0214572V0.181988C21.3528 0.235923 21.1882 0.289086 21.0224 0.34225V0.0214572H18.7072C18.7627 0.128824 18.8176 0.235923 18.8729 0.34225C18.7826 0.330989 18.1879 0.435471 18.3768 0.181988H18.5426V0.0214572C17.2251 0.0397942 16.1083 0.230694 15.2348 0.0214572H13.2494V0.181988H13.0837V0.0214572H11.9264C11.9816 0.128824 12.0367 0.235923 12.0915 0.34225H11.5949V0.0214572C11.3743 0.0761976 11.1549 0.128824 10.9336 0.181988C10.9336 0.181988 10.8389 -0.0279182 10.6027 0.0214572V0.181988C10.2757 0.281646 10.1899 0.247857 9.94154 0.34225V0.0214572H7.79157V0.34225H7.4601V0.0214572H6.13705V0.181988C5.69638 0.128824 5.25584 0.0761976 4.81465 0.0214572V0.181988C4.44978 0.257008 4.32568 0.0243401 4.31795 0.0214572H2.33429V0.181988C2.10029 0.207128 2.39803 0.0671461 2.16809 0.0214572H0.845421C1.19297 0.401314 1.24345 0.308998 1.67194 0.181988C1.29556 0.679569 1.37581 0.403393 0.679768 0.34225V0.0214572H0.348863C0.448608 0.341747 0.326127 0.160904 0.51452 0.34225V0.502009H0.01796C0.0729077 0.769638 0.128262 1.03663 0.183209 1.30258H0.348863C0.367136 1.574 -0.0955893 2.1944 0.01796 2.5821H0.183209V2.90279H0.348863C0.294052 3.33018 0.238563 3.75586 0.183209 4.18284H0.348863V4.3426H0.183209C0.138818 4.60383 0.348863 5.14331 0.348863 5.14331C0.238563 5.19594 0.128261 5.24951 0.01796 5.30304V6.26351H0.348863C0.294052 6.52943 0.238563 6.79591 0.183209 7.06368C0.183209 7.06368 0.423163 7.2229 0.348863 7.54343H0.183209C0.128262 8.28889 0.0729077 9.03627 0.01796 9.78237C0.0424563 10.4296 0.326668 10.3497 0.348863 10.4231C0.294052 10.6375 0.238563 10.851 0.183209 11.0635C0.514111 11.1588 0.326127 11.0425 0.51452 11.2226C0.184292 11.1271 0.371602 11.2458 0.183209 11.0635H0.01796C0.0729077 11.3836 0.128262 11.7027 0.183209 12.0239H0.348863C0.325044 12.6748 -0.27356 12.9204 0.348863 13.4631V13.7843C0.238563 13.7302 0.128261 13.6771 0.01796 13.6242V13.9431H0.348863C0.268472 14.1607 0.0983513 14.348 0.183209 14.7442C0.191465 14.7806 0.405979 14.7962 0.348863 15.0644H0.183209V15.8639H0.01796V16.8233C0.128261 16.8775 0.238563 16.9305 0.348863 16.9835C0.400969 17.1433 0.0911784 17.2784 0.183209 17.6249H0.348863V17.7849C0.238563 18.5838 0.128261 19.386 0.01796 20.185H0.183209V20.3454H0.01796V20.8253H0.183209V21.1439H0.348863C0.294052 21.3058 0.238563 21.4644 0.183209 21.6248H0.348863C0.562835 21.8243 1.15305 22.0491 1.67194 21.9455V21.7852H1.83759V21.9455H2.82976C3.05916 21.8989 2.76264 21.7562 2.99434 21.7852V21.9455C3.4488 22.0088 3.85469 21.9043 4.15338 21.7852V21.6248H4.97974C5.23582 21.3031 5.03632 22.0576 5.80721 21.9455V21.7852C6.15763 21.7529 6.13705 21.9455 6.13705 21.9455H9.11449V21.7852C9.34402 21.7803 9.37895 22.0217 9.7759 21.9455V21.7852C9.94154 21.8383 10.1067 21.8924 10.2718 21.9455V21.7852C10.6166 21.7761 10.4504 21.8388 10.6027 21.9455H11.2652C11.2097 21.8383 11.1549 21.7322 11.0988 21.6248C11.494 21.7803 11.8228 21.9916 12.4225 21.9455C12.5327 21.8924 12.6425 21.8383 12.7523 21.7852V21.9455H13.9117V21.7852C14.0016 21.7739 14.5397 22.0881 14.9032 21.9455C14.9594 21.8383 15.0142 21.7322 15.0686 21.6248H16.0605C15.8744 21.8024 16.0617 21.6924 15.7303 21.7852V21.9455C16.1255 22.138 16.2967 21.7697 16.3921 21.6248H16.5579C16.5017 21.7322 16.4476 21.8383 16.3921 21.9455C16.6682 21.8924 16.9425 21.8383 17.2185 21.7852V21.9455H18.7072C18.9361 21.8968 18.6413 21.7547 18.8729 21.7852V21.9455C19.338 22.0179 20.2829 21.7751 20.3612 21.7852V21.9455H20.8577V21.7852C21.0905 21.7813 20.7891 21.9231 21.0224 21.9455H21.3528V21.7852C21.5872 21.7841 21.2884 21.9069 21.5183 21.9455H22.3448V21.7852C22.6215 21.8383 22.8974 21.8924 23.1734 21.9455V20.0246C23.0627 19.9709 22.9524 19.9175 22.8421 19.8644V19.386H22.6763C22.6376 19.1903 22.9828 19.1056 22.8421 18.7452C22.7311 18.6905 22.6215 18.6375 22.5111 18.5838C22.5083 18.5758 22.6709 17.76 22.6763 17.4641H23.1734V14.4237C22.4761 14.1308 23.4151 13.7361 23.1734 12.9837Z" fill="#D21F29"/>
<path d="M9.70309 3.95499H7.27151V6.2903H9.70309V3.95499ZM6.48525 3.95499H4.05246V6.2903H6.48525V3.95499ZM7.30777 1.22224C7.2827 1.96086 7.27099 2.661 7.27099 3.32161H10.5256C10.5011 3.84949 10.4889 4.57552 10.4889 5.49939C10.4889 6.39728 10.5011 7.07015 10.5256 7.51872H9.70309V6.92497H7.27099V8.6275C7.27099 8.94449 7.2827 9.53894 7.30777 10.4102H6.41048C6.46005 9.93563 6.48525 9.38141 6.48525 8.74673V6.92497H4.05246V7.51872H3.22994C3.255 7.12277 3.26684 6.44972 3.26684 5.49939C3.26684 4.52294 3.255 3.79498 3.22994 3.32161H6.48525C6.48525 2.60837 6.47232 1.90765 6.44781 1.22224H7.30777ZM17.9715 5.77671V6.88534H16.8126V5.77671H17.9715ZM16.8126 5.22189V4.11212H17.9715V5.22189H16.8126ZM14.9041 6.88534V5.77671H16.101V6.88534H14.9041ZM14.9041 5.22189V4.11212H16.101V5.22189H14.9041ZM20.6288 9.06501V8.35059C20.3294 8.37772 19.9797 8.39008 19.5804 8.39008H16.8126V7.43901H19.0188C19.3936 7.43901 19.755 7.45344 20.1046 7.47994V6.84527C19.755 6.8725 19.4182 6.88534 19.0941 6.88534H18.6458V5.77671H19.731C20.0038 5.77671 20.2925 5.78984 20.5915 5.81619V5.18355C20.3155 5.20879 20.0299 5.22189 19.731 5.22189H18.6458V4.11212H19.3194C19.5682 4.11212 19.8431 4.12739 20.1421 4.15233V3.52054C19.8431 3.54531 19.5058 3.55844 19.132 3.55844H13.8937C13.52 3.55844 13.1575 3.54531 12.8089 3.52054V4.15233C13.133 4.12739 13.4564 4.11212 13.7815 4.11212H14.23V5.22189H12.9583C12.7091 5.22189 12.4716 5.20879 12.2473 5.18355V5.81619C12.4716 5.78984 12.7091 5.77671 12.9583 5.77671H14.23V6.88534H14.1551C13.7815 6.88534 13.3326 6.8725 12.8089 6.84527V7.47994C13.3564 7.45344 13.8054 7.43901 14.1551 7.43901H16.101V8.39008H13.2948C12.9707 8.39008 12.6595 8.37772 12.3595 8.35059V9.06501C12.6595 9.03948 12.9707 9.0242 13.2948 9.0242H16.101V9.69721C16.101 9.98711 16.088 10.2255 16.0637 10.4102H16.8487C16.8243 10.1996 16.8126 9.94862 16.8126 9.65887V9.0242H19.5431C19.9417 9.0242 20.3038 9.03948 20.6288 9.06501ZM14.5673 3.39958H15.3524C15.328 3.08433 15.3145 2.81967 15.3145 2.60837H17.5609C17.5609 2.87229 17.5477 3.12267 17.5225 3.36109H18.3082C18.2837 3.14979 18.272 2.89953 18.272 2.60837H19.2821C19.88 2.60837 20.3791 2.62147 20.7777 2.64742V1.97455C20.3294 2.00034 19.8303 2.01448 19.2821 2.01448H18.272C18.272 1.82809 18.2837 1.59199 18.3082 1.29966H17.5225C17.5477 1.59199 17.5609 1.82809 17.5609 2.01448H15.3145C15.3145 1.80314 15.328 1.56476 15.3524 1.29966H14.5673C14.5906 1.56476 14.6041 1.80314 14.6041 2.01448H13.5941C13.1451 2.01448 12.6595 2.00034 12.1347 1.97455V2.64742C12.6595 2.62147 13.1451 2.60837 13.5941 2.60837H14.6041C14.6041 2.81967 14.5906 3.08433 14.5673 3.39958ZM8.50543 12.5401V14.5591H10.4511C10.7256 14.5591 11.0127 14.5467 11.3116 14.5189V15.2722C10.9626 15.2457 10.6632 15.2333 10.4144 15.2333V19.3131C10.4144 19.7607 10.4261 20.2371 10.4511 20.7387H9.66606C9.69043 20.2371 9.70284 19.7731 9.70284 19.3516V15.2333H8.50543C8.50543 15.8934 8.48078 16.5273 8.42999 17.1336C8.38042 17.7418 8.27447 18.3426 8.11268 18.9353C7.94995 19.5298 7.70784 20.1444 7.38279 20.7778C7.13399 20.6197 6.8841 20.4861 6.63477 20.3821C7.03418 19.7731 7.31401 19.1344 7.47688 18.4606C7.6392 17.7866 7.73193 17.2003 7.75755 16.698C7.78098 16.1962 7.79433 15.4446 7.79433 14.4411C7.79433 13.4115 7.78098 12.5927 7.75755 11.9847C8.88019 11.9326 9.89008 11.7463 10.788 11.4303C10.9871 11.8518 11.1494 12.1441 11.2743 12.3012C10.8996 12.3012 9.9771 12.3802 8.50543 12.5401ZM7.00911 18.9164C6.75923 19.0486 6.56014 19.2197 6.41062 19.43C6.21058 18.9571 5.94842 18.4938 5.62488 18.0451C5.79838 17.8868 5.98576 17.7418 6.18538 17.61C6.48539 18.0328 6.75923 18.4683 7.00911 18.9164ZM4.46532 14.5189C4.24078 14.5721 4.02767 14.6524 3.82802 14.7575C3.70357 14.3604 3.56656 14.0049 3.41649 13.6884C3.59093 13.5834 3.79114 13.4906 4.01634 13.4115C4.18999 13.7816 4.33937 14.1506 4.46532 14.5189ZM5.51228 12.46C6.08613 12.46 6.62156 12.4476 7.12063 12.4203V13.2127C6.59813 13.1872 6.173 13.173 5.84918 13.173H4.05271C3.62827 13.173 3.21796 13.1872 2.81855 13.2127V12.4203C3.24247 12.4476 3.65344 12.46 4.05271 12.46H4.72692C4.67561 12.1699 4.60205 11.8661 4.50224 11.5508C4.75105 11.4711 5.0125 11.3914 5.28812 11.3105C5.41299 11.8661 5.48707 12.2486 5.51228 12.46ZM5.96164 14.8361C6.38503 14.8361 6.82229 14.8237 7.27127 14.7971V15.5887C6.8461 15.5644 6.21058 15.5497 5.36328 15.5497V16.5391C6.135 16.5391 6.74685 16.5273 7.19583 16.5002V17.2917C6.74685 17.2659 6.135 17.253 5.36328 17.253V19.6692C5.36328 20.0646 5.24398 20.3279 5.00703 20.4614C4.7705 20.593 4.46532 20.658 4.09018 20.658C3.99034 20.342 3.86644 20.0522 3.7165 19.7871C4.06553 19.8132 4.30928 19.8132 4.44639 19.7871C4.58368 19.7607 4.65106 19.642 4.65106 19.43V17.253C3.85239 17.253 3.23008 17.2659 2.7811 17.2917V16.5002C3.25472 16.5273 3.87829 16.5391 4.65106 16.5391V15.5497C3.7293 15.5497 3.0427 15.5644 2.59386 15.5887V14.7971C3.0427 14.8237 3.46662 14.8361 3.86644 14.8361H5.28812C5.48707 14.2027 5.63659 13.7156 5.7371 13.3708C5.93605 13.4253 6.21058 13.5037 6.56014 13.61C6.38503 13.7156 6.18538 14.1247 5.96164 14.8361ZM3.86644 18.6986C3.66571 18.9761 3.3796 19.3657 3.00593 19.8669C2.83026 19.6816 2.64288 19.5233 2.44434 19.3905C2.96793 18.7854 3.3796 18.1507 3.67906 17.4895C3.92783 17.7015 4.16534 17.8744 4.38908 18.0057C4.24078 18.1908 4.06553 18.4217 3.86644 18.6986ZM17.4484 18.0841L15.4277 18.2022V17.3325H17.4484V18.0841ZM17.4484 15.9058V16.7382H15.4277V15.9058H17.4484ZM17.4484 14.4807V15.3132H15.4277V14.4807H17.4484ZM20.4041 12.0249H16.662C16.3636 12.0249 15.9514 12.0119 15.4277 11.9847V12.6983C15.7518 12.6718 16.1756 12.6589 16.6995 12.6589H19.6557V19.3516C19.6311 19.6165 19.5614 19.7607 19.4499 19.7872C19.3379 19.8132 19.0572 19.8274 18.6083 19.8274C18.7578 20.0907 18.8572 20.3824 18.9073 20.6981C19.4806 20.593 19.8676 20.4803 20.0672 20.3611C20.2663 20.2424 20.3656 19.9453 20.3656 19.471V13.7663C20.3656 13.1601 20.3791 12.5786 20.4041 12.0249ZM17.8589 13.9245H15.0163C14.6169 13.9245 14.2679 13.9121 13.9683 13.8874V14.5191C14.2679 14.4937 14.53 14.4807 14.7535 14.4807V18.2819C14.3297 18.3372 13.9928 18.3614 13.7436 18.3614C13.8182 18.6267 13.869 18.8758 13.8937 19.1142C14.6169 18.9572 15.8021 18.8256 17.4484 18.7187C17.4484 19.0877 17.436 19.5099 17.4104 19.9856H18.1594C18.1343 19.5099 18.1216 19.0617 18.1216 18.6378C18.62 18.5865 18.9697 18.5594 19.1693 18.5594L19.132 17.9253C18.6083 17.9802 18.272 18.0057 18.1216 18.0057V14.4807C18.3702 14.4807 18.6329 14.4937 18.9073 14.5191V13.8874C18.5576 13.9121 18.2096 13.9245 17.8589 13.9245ZM14.7169 12.8158C14.5171 12.4731 14.23 12.0249 13.8562 11.4711C13.631 11.6028 13.4189 11.7463 13.2204 11.9063C13.5941 12.4075 13.8807 12.8431 14.0804 13.2127C14.2796 13.0285 14.492 12.8955 14.7169 12.8158ZM13.2568 15.113C13.2568 14.6118 13.2701 14.0309 13.2948 13.3708H12.5462C12.5719 13.9523 12.5835 14.5326 12.5835 15.113V18.8758C12.5835 19.3516 12.5591 19.9188 12.5083 20.5787H13.2568V15.113Z" fill="#F2EF21"/>
</svg>
