<svg width="0" height="0" class="hidden">
  <symbol xmlns="http://www.w3.org/2000/svg" viewBox="0 0 14 12" id="email">
      <path d="M12.6.4H1.4C.63.4.007 1.03.007 1.8L0 10.2c0 .77.63 1.4 1.4 1.4h11.2c.77 0 1.4-.63 1.4-1.4V1.8c0-.77-.63-1.4-1.4-1.4zm0 2.8L7 6.7 1.4 3.2V1.8L7 5.3l5.6-3.5v1.4z"></path>
  </symbol>
  <symbol xmlns="http://www.w3.org/2000/svg" viewBox="0 0 14 13" id="attention">
      <path d="M9.815.04l1.86 1.928 1.9 1.89-.048 2.678.007 2.679-1.928 1.86-1.889 1.9-2.678-.048-2.68.007-1.86-1.927L.6 9.117.647 6.44.64 3.759 2.568 1.9 4.458 0l2.678.047L9.815.04z"></path>
      <path d="M6.087 8.887h2v1.6h-2v-1.6zm0-6.4h2v4.8h-2v-4.8z" fill="#fff"></path>
  </symbol>
  <symbol xmlns="http://www.w3.org/2000/svg" viewBox="0 0 16 16" id="close-round">
      <rect width="16" height="16" rx="8" fill="#48AE38"></rect>
      <path d="M6.5 10.1L4.4 8l-.7.7 2.8 2.8 6-6-.7-.7-5.3 5.3z" fill="#fff"></path>
  </symbol>
  <symbol xmlns="http://www.w3.org/2000/svg" viewBox="0 0 8 7" id="menu">
      <path stroke="#D5D5D5" d="M0 .5h8m-8 3h8m-8 3h8"></path>
  </symbol>
  <symbol xmlns="http://www.w3.org/2000/svg" viewBox="0 0 15 14" id="add">
      <path d="M14.593 1.4c0-.77-.623-1.4-1.393-1.4H2C1.23 0 .6.63.6 1.4v8.4c0 .77.63 1.4 1.4 1.4h9.8l2.8 2.8-.007-12.6zM11.1 6.3H8.3v2.8H6.9V6.3H4.1V4.9h2.8V2.1h1.4v2.8h2.8v1.4z"></path>
  </symbol>
  <symbol xmlns="http://www.w3.org/2000/svg" viewBox="0 0 12 14" id="copy">
      <path d="M1.54 2.642l-.002 1.327v6.565a2.031 2.031 0 002.03 2.031h5.386a1.407 1.407 0 01-1.326.938h-4.06A2.969 2.969 0 01.6 10.532V3.97c0-.613.392-1.135.94-1.327zM10.193 0A1.406 1.406 0 0111.6 1.406v8.125a1.408 1.408 0 01-1.406 1.406H4.569a1.406 1.406 0 01-1.406-1.406V1.406A1.406 1.406 0 014.569 0h5.625z"></path>
  </symbol>
  <symbol xmlns="http://www.w3.org/2000/svg" viewBox="0 0 13 12" id="filter">
      <path d="M12.345 0H1.47c-.5 0-.752.606-.398.96l4.335 4.335v4.83c0 .184.09.355.24.46l1.874 1.313a.563.563 0 00.886-.461V5.295L12.742.96a.563.563 0 00-.398-.96z"></path>
  </symbol>
  <symbol xmlns="http://www.w3.org/2000/svg" viewBox="0 0 14 13" id="layers">
      <path d="M1.223 3.758l5.914 2.683a.65.65 0 00.54 0l5.915-2.683c.42-.19.42-.825 0-1.016L7.678.059a.65.65 0 00-.54 0L1.222 2.742c-.42.19-.42.826 0 1.016zM13.593 6l-1.476-.669-4.104 1.86a1.457 1.457 0 01-1.211 0l-4.104-1.86L1.223 6c-.42.19-.42.825 0 1.015l5.914 2.681a.652.652 0 00.54 0l5.915-2.68c.42-.191.42-.826 0-1.016zm0 3.245l-1.47-.666-4.11 1.862a1.457 1.457 0 01-1.211 0L2.692 8.58l-1.47.666c-.42.19-.42.825 0 1.015l5.915 2.681a.652.652 0 00.54 0l5.915-2.68c.42-.191.42-.826 0-1.016z"></path>
  </symbol>
  <symbol xmlns="http://www.w3.org/2000/svg" viewBox="0 0 13 14" id="phone">
      <path d="M11.907 9.366a8.01 8.01 0 01-2.471-.392.684.684 0 00-.707.168L7.63 10.52c-1.981-.945-3.836-2.73-4.823-4.781l1.365-1.162a.714.714 0 00.168-.714 7.807 7.807 0 01-.392-2.471A.7.7 0 003.255.7H.833C.455.7 0 .868 0 1.393 0 7.896 5.411 13.3 11.907 13.3c.497 0 .693-.441.693-.826v-2.415a.7.7 0 00-.693-.693z"></path>
  </symbol>
  <symbol xmlns="http://www.w3.org/2000/svg" viewBox="0 0 14 13" id="phone">
      <path d="M9.815.04l1.86 1.928 1.9 1.89-.048 2.678.007 2.679-1.928 1.86-1.889 1.9-2.678-.048-2.68.007-1.86-1.927L.6 9.117.647 6.44.64 3.759 2.568 1.9 4.458 0l2.678.047L9.815.04z"></path>
  </symbol>
  <symbol xmlns="http://www.w3.org/2000/svg" viewBox="0 0 10 12" id="trash">
      <path d="M1.241 10.667c0 .733.6 1.333 1.333 1.333h5.334c.733 0 1.333-.6 1.333-1.333v-8h-8v8zm8.667-10H7.574L6.908 0H3.574l-.666.667H.574V2h9.334V.667z"></path>
  </symbol>
  <symbol xmlns="http://www.w3.org/2000/svg" viewBox="0 0 12 12" id="addRect">
      <path d="M10.6667 0H1.33333C0.593333 0 0 0.6 0 1.33333V10.6667C0 11.4 0.593333 12 1.33333 12H10.6667C11.4 12 12 11.4 12 10.6667V1.33333C12 0.6 11.4 0 10.6667 0ZM9.33333 6.66667H6.66667V9.33333H5.33333V6.66667H2.66667V5.33333H5.33333V2.66667H6.66667V5.33333H9.33333V6.66667Z" />
  </symbol>
  <symbol xmlns="http://www.w3.org/2000/svg" viewBox="0 0 12 12" id="eye">
      <path d="M0.570571 6.31657C0.476476 6.12022 0.476476 5.87978 0.570571 5.68343C1.76411 3.2093 4.2934 1.5 7.22 1.5C10.1466 1.5 12.6759 3.20929 13.8694 5.68339C13.9635 5.87977 13.9635 6.12023 13.8694 6.31661C12.6759 8.79071 10.1466 10.5 7.22 10.5C4.2934 10.5 1.76411 8.7907 0.570571 6.31657ZM3.72 6C3.72 7.92948 5.29052 9.5 7.22 9.5C9.14948 9.5 10.72 7.92948 10.72 6C10.72 4.07052 9.14948 2.5 7.22 2.5C5.29052 2.5 3.72 4.07052 3.72 6Z"  stroke="#D5D5D5"/>
      <path d="M7.21992 7.79998C8.21403 7.79998 9.01992 6.99409 9.01992 5.99998C9.01992 5.00587 8.21403 4.19998 7.21992 4.19998C6.22581 4.19998 5.41992 5.00587 5.41992 5.99998C5.41992 6.99409 6.22581 7.79998 7.21992 7.79998Z" />
      <line style="transition: stroke .3s ease" class="hide-line" x1="11.4843" y1="0.620336" x2="2.78434" y2="11.6203" stroke-width="2"/>
  </symbol>
  <symbol viewBox="0 0 17 16" xmlns="http://www.w3.org/2000/svg" id="zoom">
      <path d="M16.12 14.5735L12.3119 10.6129C13.2911 9.44901 13.8275 7.98455 13.8275 6.45999C13.8275 2.89801 10.9295 0 7.36753 0C3.80554 0 0.907532 2.89801 0.907532 6.45999C0.907532 10.022 3.80554 12.92 7.36753 12.92C8.70474 12.92 9.97905 12.5167 11.0685 11.751L14.9055 15.7416C15.0659 15.9082 15.2816 16 15.5127 16C15.7315 16 15.9391 15.9166 16.0967 15.7649C16.4315 15.4428 16.4421 14.9085 16.12 14.5735ZM7.36753 1.68522C10.0004 1.68522 12.1423 3.82713 12.1423 6.45999C12.1423 9.09286 10.0004 11.2348 7.36753 11.2348C4.73466 11.2348 2.59275 9.09286 2.59275 6.45999C2.59275 3.82713 4.73466 1.68522 7.36753 1.68522Z"/>
  </symbol>
  <symbol viewBox="0 0 8 8" xmlns="http://www.w3.org/2000/svg" id="remove">
      <path d="M8 0.805714L7.19429 0L4 3.19429L0.805714 0L0 0.805714L3.19429 4L0 7.19429L0.805714 8L4 4.80571L7.19429 8L8 7.19429L4.80571 4L8 0.805714Z" fill="#9B9B9B"/>
  </symbol>


  <symbol id="stop" viewBox="0 0 40 40" xmlns="http://www.w3.org/2000/svg">
      <g filter="url(#filter0_d)">
          <path d="M13.7868 5H26.2132L35 13.7868V26.2132L26.2132 35H13.7868L5 26.2132V13.7868L13.7868 5Z" fill="white"/>
      </g>
      <path d="M29.5529 18.1637H28.9222V19.4711C28.9222 19.4711 29.5019 19.4708 29.5529 19.4708C29.9234 19.4708 30.2364 19.1715 30.2364 18.8173C30.2364 18.463 29.9234 18.1637 29.5529 18.1637Z" fill="#E6442F"/>
      <path d="M22.493 18.1637C21.4805 18.1637 20.6567 18.9875 20.6567 20C20.6567 21.0125 21.4805 21.8362 22.493 21.8362C23.5055 21.8362 24.3293 21.0125 24.3293 20C24.3293 18.9875 23.5055 18.1637 22.493 18.1637Z" fill="#E6442F"/>
      <path d="M26.2132 5H13.7868L5 13.7868V26.2132L13.7868 35H26.2132L35 26.2132V13.7868L26.2132 5ZM13.1263 21.7406C12.9344 22.8482 11.8897 23.6521 10.6424 23.6521C9.65574 23.6521 8.72861 23.2535 8.09873 22.5584L9.40127 21.378C9.69418 21.7013 10.1582 21.8943 10.6424 21.8943C11.1017 21.8943 11.3625 21.6235 11.3942 21.4406C11.4082 21.3597 11.4454 21.145 10.9729 20.9674C10.6669 20.8524 10.4408 20.7971 10.2221 20.7435C9.8873 20.6615 9.54107 20.5768 9.14381 20.3185C8.43928 19.8607 8.20127 19.0844 8.21346 18.5105C8.2318 17.6434 8.82717 16.8431 9.69488 16.5194C11.1616 15.972 12.341 16.8481 13.0457 17.3715L11.9977 18.7827C10.9607 18.0126 10.644 18.0414 10.3094 18.1662C10.0667 18.2568 9.97297 18.4484 9.97092 18.5479C9.96875 18.6492 10.0138 18.7876 10.1017 18.8446C10.2418 18.9357 10.3495 18.9649 10.6401 19.0361C10.8837 19.0958 11.1869 19.17 11.5912 19.322C12.7057 19.7407 13.3082 20.6901 13.1263 21.7406ZM18.5652 18.1637H17.0596V23.5941H15.3018V18.1637H13.8084V16.4059H18.5652V18.1637H18.5652ZM22.493 23.5941C20.5112 23.5941 18.8989 21.9818 18.8989 20C18.8989 18.0182 20.5112 16.4059 22.493 16.4059C24.4748 16.4059 26.0871 18.0182 26.0871 20C26.0871 21.9818 24.4748 23.5941 22.493 23.5941ZM29.5529 21.2287C29.4988 21.2287 28.9197 21.2289 28.9197 21.2289V23.5941H27.1619V16.4059H29.5529C30.8991 16.4059 31.9943 17.4877 31.9943 18.8173C31.9943 20.1469 30.8991 21.2287 29.5529 21.2287Z" fill="#E6442F"/>
      <defs>
          <filter id="filter0_d" x="0" y="0" width="40" height="40" filterUnits="userSpaceOnUse" color-interpolation-filters="sRGB">
              <feFlood flood-opacity="0" result="BackgroundImageFix"/>
              <feColorMatrix in="SourceAlpha" type="matrix" values="0 0 0 0 0 0 0 0 0 0 0 0 0 0 0 0 0 0 127 0"/>
              <feOffset/>
              <feGaussianBlur stdDeviation="2.5"/>
              <feColorMatrix type="matrix" values="0 0 0 0 0 0 0 0 0 0 0 0 0 0 0 0 0 0 0.4 0"/>
              <feBlend mode="normal" in2="BackgroundImageFix" result="effect1_dropShadow"/>
              <feBlend mode="normal" in="SourceGraphic" in2="effect1_dropShadow" result="shape"/>
          </filter>
      </defs>
  </symbol>

  <symbol id="fb" viewBox="0 0 29 28" xmlns="http://www.w3.org/2000/svg">
      <path fill-rule="evenodd" clip-rule="evenodd" d="M14 0C6.26801 0 0 6.26801 0 14C0 21.732 6.26801 28 14 28C21.732 28 28 21.732 28 14C28 6.26801 21.732 0 14 0ZM15.4592 14.615V22.2317H12.3078V14.6153H10.7333V11.9905H12.3078V10.4146C12.3078 8.2733 13.1968 7 15.7227 7H17.8255V9.62507H16.5111C15.5279 9.62507 15.4628 9.99188 15.4628 10.6765L15.4592 11.9902H17.8404L17.5618 14.615H15.4592Z"/>
  </symbol>
  <symbol id="vk" viewBox="0 0 29 28" xmlns="http://www.w3.org/2000/svg">
      <path fill-rule="evenodd" clip-rule="evenodd" d="M14.6666 0C6.93464 0 0.666626 6.26801 0.666626 14C0.666626 21.732 6.93464 28 14.6666 28C22.3986 28 28.6666 21.732 28.6666 14C28.6666 6.26801 22.3986 0 14.6666 0ZM15.8066 18.4194C15.6685 18.565 15.399 18.5944 15.399 18.5944H14.5065C14.5065 18.5944 12.5373 18.7105 10.8027 16.9382C8.91095 15.0046 7.24055 11.1682 7.24055 11.1682C7.24055 11.1682 7.14414 10.9166 7.24859 10.7954C7.36618 10.6585 7.68682 10.6499 7.68682 10.6499L9.82029 10.6363C9.82029 10.6363 10.0211 10.6685 10.165 10.7725C10.2841 10.8585 10.3506 11.0184 10.3506 11.0184C10.3506 11.0184 10.6953 11.8744 11.1518 12.6487C12.0436 14.1608 12.4585 14.4913 12.7608 14.3293C13.202 14.0934 13.0698 12.192 13.0698 12.192C13.0698 12.192 13.0778 11.5023 12.8478 11.1948C12.6695 10.9567 12.3336 10.8872 12.1853 10.8678C12.0648 10.8521 12.262 10.5782 12.5176 10.4556C12.9018 10.2713 13.5796 10.2606 14.3808 10.2685C15.0053 10.2749 15.185 10.3129 15.429 10.371C15.9951 10.5051 15.9775 10.9349 15.9393 11.8625C15.9279 12.1399 15.9147 12.4618 15.9147 12.8337C15.9147 12.9173 15.9122 13.0063 15.9096 13.098C15.8964 13.5732 15.8812 14.1174 16.2002 14.3199C16.3638 14.4232 16.7634 14.335 17.7633 12.6688C18.2373 11.8787 18.5923 10.9503 18.5923 10.9503C18.5923 10.9503 18.6704 10.7847 18.7909 10.7137C18.9144 10.6413 19.0809 10.6635 19.0809 10.6635L21.3261 10.6499C21.3261 10.6499 22.001 10.5703 22.1098 10.87C22.2245 11.1833 21.8578 11.916 20.9405 13.1162C20.0703 14.255 19.6468 14.6742 19.6857 15.045C19.7141 15.316 19.9893 15.5611 20.5176 16.042C21.6203 17.047 21.9159 17.5758 21.9869 17.7028C21.9928 17.7133 21.9971 17.7211 22.0003 17.7262C22.4947 18.5313 21.4517 18.5944 21.4517 18.5944L19.4571 18.6216C19.4571 18.6216 19.029 18.7048 18.4652 18.3248C18.1698 18.1259 17.8812 17.8011 17.6063 17.4917C17.1864 17.0192 16.7986 16.5828 16.4676 16.6859C15.9117 16.8594 15.9285 18.0344 15.9285 18.0344C15.9285 18.0344 15.9329 18.2861 15.8066 18.4194Z"/>
  </symbol>
  <symbol id="you" viewBox="0 0 29 28" xmlns="http://www.w3.org/2000/svg">
      <path fill-rule="evenodd" clip-rule="evenodd" d="M14.3334 0C6.60139 0 0.333374 6.26801 0.333374 14C0.333374 21.732 6.60139 28 14.3334 28C22.0654 28 28.3334 21.732 28.3334 14C28.3334 6.26801 22.0654 0 14.3334 0ZM20.1676 9.1871C20.8102 9.36343 21.3162 9.88295 21.488 10.5427C21.8 11.7384 21.8 14.2333 21.8 14.2333C21.8 14.2333 21.8 16.7281 21.488 17.924C21.3162 18.5837 20.8102 19.1032 20.1676 19.2796C19.0032 19.6 14.3334 19.6 14.3334 19.6C14.3334 19.6 9.66358 19.6 8.49903 19.2796C7.85647 19.1032 7.35044 18.5837 7.17871 17.924C6.86672 16.7281 6.86672 14.2333 6.86672 14.2333C6.86672 14.2333 6.86672 11.7384 7.17871 10.5427C7.35044 9.88295 7.85647 9.36343 8.49903 9.1871C9.66358 8.86666 14.3334 8.86666 14.3334 8.86666C14.3334 8.86666 19.0032 8.86666 20.1676 9.1871Z"/>
      <path fill-rule="evenodd" clip-rule="evenodd" d="M12.9333 16.8V12.1333L16.6666 14.4667L12.9333 16.8Z"/>
  </symbol>

</svg>