<svg xmlns="http://www.w3.org/2000/svg" style="display: none;">

    <symbol id="rus" viewBox="0 0 22 22" fill="none" xmlns="http://www.w3.org/2000/svg">
        <path d="M20.3524 3.79309H1.64764C0.737645 3.79309 0 4.53074 0 5.44073V8.59768H22V5.44073C22 4.53074 21.2624 3.79309 20.3524 3.79309Z" fill="#EAEAEA"/>
        <path d="M0 16.5593C0 17.4692 0.737645 18.2069 1.64764 18.2069H20.3524C21.2623 18.2069 22 17.4693 22 16.5593V13.4023H0V16.5593Z" fill="#FF4B55"/>
        <path d="M22 8.5976H0V13.4019H22V8.5976Z" fill="#41479B"/>
    </symbol>

    <symbol id="eng" viewBox="0 0 22 22" fill="none" xmlns="http://www.w3.org/2000/svg">
        <path d="M20.3524 3.79309H1.64764C0.737645 3.79309 0 4.53074 0 5.44073V8.59768H22V5.44073C22 4.53074 21.2624 3.79309 20.3524 3.79309Z" fill="#EAEAEA"/>
        <path d="M0 16.5593C0 17.4692 0.737645 18.2069 1.64764 18.2069H20.3524C21.2623 18.2069 22 17.4693 22 16.5593V13.4023H0V16.5593Z" fill="#FF4B55"/>
        <path d="M22 8.5976H0V13.4019H22V8.5976Z" fill="#41479B"/>
    </symbol>


</svg>
