<svg xmlns="http://www.w3.org/2000/svg" style="display: none;">

    <symbol id="ru" viewBox="0 0 22 16" fill="none" xmlns="http://www.w3.org/2000/svg">
        <g clip-path="url(#clip0_956:1427)">
            <path d="M20.3524 0.793091H1.64764C0.737645 0.793091 0 1.56073 0 2.50774V5.79308H22V2.50774C22 1.56073 21.2624 0.793091 20.3524 0.793091Z" fill="#EAEAEA"/>
            <path d="M0 14.0782C0 15.0251 0.737645 15.7928 1.64764 15.7928H20.3524C21.2623 15.7928 22 15.0252 22 14.0782V10.7928H0V14.0782Z" fill="#FF4B55"/>
            <path d="M22 5.79309H0V10.7928H22V5.79309Z" fill="#41479B"/>
            </g>
            <defs>
            <clipPath id="clip0_956:1427">
            <rect y="0.793091" width="22" height="15" rx="2" fill="white"/>
            </clipPath>
            </defs>
    </symbol>

    <symbol id="en" viewBox="0 0 22 16" fill="none" xmlns="http://www.w3.org/2000/svg">
        <g clip-path="url(#clip0_956:1429)">
            <path d="M21.6608 1.93162C21.2373 1.2445 20.4582 0.777771 19.5556 0.777771H11V1.93162H21.6608ZM0 12.3162H22V13.4701H0V12.3162ZM11 7.70085H22V8.85469H11V7.70085ZM11 5.39316H22V6.547H11V5.39316ZM0 10.0085H22V11.1624H0V10.0085ZM2.44444 15.7778H19.5556C20.4582 15.7778 21.2373 15.311 21.6608 14.6239H0.339167C0.762667 15.311 1.54183 15.7778 2.44444 15.7778ZM11 3.08546H22V4.23931H11V3.08546Z" fill="#E6442F"/>
            <path d="M0.0415556 13.8618C0.0519444 13.9155 0.0635556 13.9691 0.0776111 14.0216C0.0935 14.0799 0.113056 14.1358 0.133833 14.1924C0.188222 14.3418 0.254222 14.486 0.337333 14.621L0.339167 14.6239H21.6608L21.6621 14.6216C21.7441 14.4856 21.812 14.3424 21.8649 14.1941C21.9052 14.0858 21.9363 13.9747 21.9578 13.8618C21.9829 13.7349 22 13.6045 22 13.4701H0C0 13.6045 0.0171111 13.7343 0.0415556 13.8618ZM0 11.1624H22V12.3162H0V11.1624ZM0 8.85469V10.0085H22V8.85469H11H0ZM11 6.547H22V7.70084H11V6.547ZM11 4.2393H22V5.39315H11V4.2393ZM0.339167 1.93161L0.337333 1.93449L0.339167 1.93161ZM0.0782222 2.53392C0.0935 2.47507 0.114889 2.41911 0.134444 2.36257C0.113222 2.41894 0.0944658 2.4761 0.0782222 2.53392ZM11 3.08546H22C22 2.95103 21.9829 2.82065 21.9578 2.69315C21.9364 2.58013 21.9052 2.46898 21.8643 2.36084C21.8114 2.21189 21.7432 2.06814 21.6608 1.93161H11V3.08546Z" fill="#EAEAEA"/>
            <path d="M11 0.777771H2.44444C1.79614 0.777771 1.17438 1.0209 0.715961 1.45368C0.257539 1.88645 0 2.47342 0 3.08546L0 8.85469H11V0.777771Z" fill="#41479B"/>
            <path d="M1.2229 2.35046L1.60057 2.60949L1.45634 3.02776L1.8334 2.7693L2.21107 3.02776L2.06684 2.60949L2.44451 2.35046H1.97762L1.8334 1.93161L1.68979 2.35046H1.2229ZM2.44512 3.5043L2.82279 3.76334L2.67857 4.18161L3.05562 3.92315L3.43329 4.18161L3.28907 3.76334L3.66673 3.5043H3.19985L3.05562 3.08546L2.91201 3.5043H2.44512ZM4.88957 3.5043L5.26723 3.76334L5.12301 4.18161L5.50007 3.92315L5.87773 4.18161L5.73351 3.76334L6.11118 3.5043H5.64429L5.50007 3.08546L5.35646 3.5043H4.88957ZM7.33401 3.5043L7.71168 3.76334L7.56746 4.18161L7.94451 3.92315L8.32218 4.18161L8.17796 3.76334L8.55562 3.5043H8.08874L7.94451 3.08546L7.8009 3.5043H7.33401ZM2.44512 5.81199L2.82279 6.07103L2.67857 6.4893L3.05562 6.23084L3.43329 6.4893L3.28907 6.07103L3.66673 5.81199H3.19985L3.05562 5.39315L2.91201 5.81199H2.44512ZM4.88957 5.81199L5.26723 6.07103L5.12301 6.4893L5.50007 6.23084L5.87773 6.4893L5.73351 6.07103L6.11118 5.81199H5.64429L5.50007 5.39315L5.35646 5.81199H4.88957ZM7.33401 5.81199L7.71168 6.07103L7.56746 6.4893L7.94451 6.23084L8.32218 6.4893L8.17796 6.07103L8.55562 5.81199H8.08874L7.94451 5.39315L7.8009 5.81199H7.33401ZM3.66735 2.35046L4.04501 2.60949L3.90079 3.02776L4.27785 2.7693L4.65551 3.02776L4.51129 2.60949L4.88896 2.35046H4.42207L4.27785 1.93161L4.13423 2.35046H3.66735ZM6.11179 2.35046L6.48946 2.60949L6.34523 3.02776L6.72229 2.7693L7.09996 3.02776L6.95574 2.60949L7.3334 2.35046H6.86651L6.72229 1.93161L6.57868 2.35046H6.11179ZM8.55624 2.35046L8.9339 2.60949L8.78968 3.02776L9.16674 2.7693L9.5444 3.02776L9.40018 2.60949L9.77785 2.35046H9.31096L9.16674 1.93161L9.02312 2.35046H8.55624ZM1.2229 4.65815L1.60057 4.91719L1.45634 5.33546L1.8334 5.07699L2.21107 5.33546L2.06684 4.91719L2.44451 4.65815H1.97762L1.8334 4.2393L1.68979 4.65815H1.2229ZM3.90079 5.33546L4.27785 5.07699L4.65551 5.33546L4.51129 4.91719L4.88896 4.65815H4.42207L4.27785 4.2393L4.13423 4.65815H3.66735L4.04501 4.91719L3.90079 5.33546ZM6.11179 4.65815L6.48946 4.91719L6.34523 5.33546L6.72229 5.07699L7.09996 5.33546L6.95574 4.91719L7.3334 4.65815H6.86651L6.72229 4.2393L6.57868 4.65815H6.11179ZM8.55624 4.65815L8.9339 4.91719L8.78968 5.33546L9.16674 5.07699L9.5444 5.33546L9.40018 4.91719L9.77785 4.65815H9.31096L9.16674 4.2393L9.02312 4.65815H8.55624ZM1.2229 6.96584L1.60057 7.22488L1.45634 7.64315L1.8334 7.38469L2.21107 7.64315L2.06684 7.22488L2.44451 6.96584H1.97762L1.8334 6.54699L1.68979 6.96584H1.2229ZM3.90079 7.64315L4.27785 7.38469L4.65551 7.64315L4.51129 7.22488L4.88896 6.96584H4.42207L4.27785 6.54699L4.13423 6.96584H3.66735L4.04501 7.22488L3.90079 7.64315ZM6.11179 6.96584L6.48946 7.22488L6.34523 7.64315L6.72229 7.38469L7.09996 7.64315L6.95574 7.22488L7.3334 6.96584H6.86651L6.72229 6.54699L6.57868 6.96584H6.11179ZM8.55624 6.96584L8.9339 7.22488L8.78968 7.64315L9.16674 7.38469L9.5444 7.64315L9.40018 7.22488L9.77785 6.96584H9.31096L9.16674 6.54699L9.02312 6.96584H8.55624Z" fill="white"/>
            </g>
            <defs>
            <clipPath id="clip0_956:1429">
            <rect y="0.777771" width="22" height="15" rx="2" fill="white"/>
            </clipPath>
            </defs>
    </symbol>

    <symbol id="ua" viewBox="0 0 22 15" fill="none" xmlns="http://www.w3.org/2000/svg">
        <path d="M20.3524 0H1.64764C0.737645 0 0 1.15147 0 2.57197V7.5H22V2.57197C22 1.15147 21.2624 0 20.3524 0Z" fill="#4173CD"/>
        <path d="M0 12.428C0 13.8485 0.737645 15 1.64764 15H20.3524C21.2623 15 22 13.8485 22 12.428V7.5H0V12.428Z" fill="#FFE15A"/>
    </symbol>


</svg>
