<svg width="109" height="20" viewBox="0 0 109 20" fill="none" xmlns="http://www.w3.org/2000/svg">
<path d="M87.7286 19.6516H83.6067V15.6458H74.3469V12.3947L82.0392 0.290192H87.7286V12.0173H90.225V15.6458H87.7286V19.6516ZM83.6067 12.0173V3.94767L78.3818 12.0173H83.6067Z" fill="#E6442F"/>
<path d="M103.365 19.6516H92.8572V0.290192H103.046C104.807 0.290192 106.171 0.773985 107.139 1.74157C108.126 2.68981 108.619 3.85091 108.619 5.22488C108.619 6.40533 108.3 7.39227 107.661 8.18569C107.023 8.97911 106.229 9.47258 105.281 9.6661C106.326 9.82091 107.207 10.3531 107.923 11.2626C108.639 12.1721 108.997 13.2268 108.997 14.4266C108.997 15.9361 108.503 17.1842 107.516 18.1712C106.529 19.1581 105.146 19.6516 103.365 19.6516ZM102.146 8.04055C102.843 8.04055 103.394 7.84704 103.801 7.46C104.207 7.07297 104.41 6.56982 104.41 5.95057C104.41 5.33131 104.197 4.82817 103.772 4.44113C103.365 4.03475 102.823 3.83156 102.146 3.83156H96.9791V8.04055H102.146ZM102.291 16.0812C103.065 16.0812 103.675 15.8877 104.12 15.5006C104.565 15.0943 104.788 14.5427 104.788 13.8461C104.788 13.2075 104.565 12.6753 104.12 12.2496C103.675 11.8045 103.065 11.5819 102.291 11.5819H96.9791V16.0812H102.291Z" fill="#E6442F"/>
<path d="M20.1161 19.6517H15.4136L14.2235 16.3716H5.92163L4.70247 19.6517H0L7.48912 0.290275H12.656L20.1161 19.6517ZM13.0914 12.7431L10.0726 4.41219L7.0537 12.7431H13.0914Z" fill="black"/>
<path d="M26.0259 19.6517H21.904V0.290275H30.9606C32.9926 0.290275 34.5794 0.890179 35.7212 2.08999C36.8823 3.27044 37.4628 4.75085 37.4628 6.5312C37.4628 8.29221 36.8823 9.77262 35.7212 10.9724C34.5601 12.1722 32.9732 12.7721 30.9606 12.7721H26.0259V19.6517ZM30.4091 9.14369C31.2412 9.14369 31.9185 8.91147 32.441 8.44703C32.9829 7.96323 33.2538 7.32463 33.2538 6.5312C33.2538 5.73778 32.9829 5.10885 32.441 4.64441C31.9185 4.16062 31.2412 3.91872 30.4091 3.91872H26.0259V9.14369H30.4091Z" fill="black"/>
<path d="M44.1398 19.6517H40.0179V0.290275H49.0745C51.1065 0.290275 52.6933 0.890179 53.835 2.08999C54.9961 3.27044 55.5767 4.75085 55.5767 6.5312C55.5767 8.29221 54.9961 9.77262 53.835 10.9724C52.6739 12.1722 51.0871 12.7721 49.0745 12.7721H44.1398V19.6517ZM48.523 9.14369C49.3551 9.14369 50.0324 8.91147 50.5549 8.44703C51.0968 7.96323 51.3677 7.32463 51.3677 6.5312C51.3677 5.73778 51.0968 5.10885 50.5549 4.64441C50.0324 4.16062 49.3551 3.91872 48.523 3.91872H44.1398V9.14369H48.523Z" fill="black"/>
<path d="M65.0113 20C61.5667 20 58.8381 18.9744 56.8256 16.9231L59.0607 13.7881C60.7249 15.5298 62.7762 16.4006 65.2145 16.4006C66.2789 16.4006 67.1013 16.1974 67.6819 15.791C68.2818 15.3653 68.5817 14.8524 68.5817 14.2525C68.5817 13.73 68.3011 13.2946 67.7399 12.9463C67.1981 12.598 66.5111 12.3464 65.679 12.1916C64.8662 12.0368 63.976 11.8142 63.0084 11.5239C62.0408 11.2337 61.141 10.9047 60.3089 10.537C59.4961 10.1693 58.8091 9.58878 58.2479 8.79536C57.7061 8.00194 57.4351 7.03435 57.4351 5.8926C57.4351 4.22835 58.1028 2.83503 59.438 1.71263C60.7733 0.570876 62.5537 0 64.7791 0C67.856 0 70.3718 0.899855 72.3263 2.69956L70.0331 5.71843C68.5043 4.30576 66.6272 3.59942 64.4018 3.59942C63.5309 3.59942 62.8536 3.77359 62.3698 4.12192C61.886 4.47025 61.6441 4.94436 61.6441 5.54427C61.6441 6.00871 61.9151 6.40542 62.4569 6.7344C63.0181 7.04403 63.7051 7.27625 64.5179 7.43106C65.35 7.58587 66.2402 7.81809 67.1884 8.12772C68.156 8.418 69.0462 8.75665 69.8589 9.14369C70.6911 9.51137 71.3781 10.1016 71.9199 10.9144C72.4811 11.7078 72.7617 12.6657 72.7617 13.7881C72.7617 15.6459 72.0941 17.1456 70.7588 18.2874C69.4429 19.4291 67.5271 20 65.0113 20Z" fill="black"/>
</svg>
