<svg width="16" height="17" viewBox="0 0 16 17" fill="none" xmlns="http://www.w3.org/2000/svg">
<path d="M10.3074 12.844H5.6865C5.39206 12.844 5.15332 13.1011 5.15332 13.4182C5.15332 13.7353 5.39203 13.9924 5.6865 13.9924H10.3073C10.6018 13.9924 10.8405 13.7353 10.8405 13.4182C10.8405 13.1011 10.6018 12.844 10.3074 12.844Z" fill="#D5D5D5"/>
<path d="M10.3074 11.0332H5.6865C5.39206 11.0332 5.15332 11.2903 5.15332 11.6074C5.15332 11.9245 5.39203 12.1816 5.6865 12.1816H10.3073C10.6018 12.1816 10.8405 11.9245 10.8405 11.6074C10.8405 11.2903 10.6018 11.0332 10.3074 11.0332Z" fill="#D5D5D5"/>
<path d="M14.7511 3.89735H13.0546V0.574196C13.0546 0.257105 12.8159 0 12.5215 0H3.4737C3.17925 0 2.94051 0.257071 2.94051 0.574196V3.89735H1.24406C0.558081 3.89735 0 4.49839 0 5.23714V11.0138C0 11.7526 0.558081 12.3536 1.24406 12.3536H2.94061V15.4358C2.94061 15.7529 3.17932 16.01 3.47379 16.01H12.5214C12.8158 16.01 13.0545 15.7529 13.0545 15.4358V12.3536H14.7511C15.4371 12.3536 15.9951 11.7526 15.9951 11.0138V5.23714C15.9951 4.49842 15.4371 3.89735 14.7511 3.89735ZM4.00685 1.14839H11.9883V3.89735H4.00685V1.14839ZM11.9882 14.8616H4.00697C4.00697 14.7494 4.00697 10.3028 4.00697 10.164H11.9882C11.9882 10.3063 11.9882 14.7537 11.9882 14.8616ZM12.5215 7.26894H11.1643C10.8698 7.26894 10.6311 7.01187 10.6311 6.69475C10.6311 6.37762 10.8698 6.12055 11.1643 6.12055H12.5215C12.8159 6.12055 13.0546 6.37762 13.0546 6.69475C13.0546 7.01187 12.8159 7.26894 12.5215 7.26894Z" fill="#9B9B9B"/>
</svg>
