<svg width="20" height="20" viewBox="0 0 20 20" fill="none" xmlns="http://www.w3.org/2000/svg">
<circle cx="10" cy="10" r="9.5" stroke="#D5D5D5"/>
<path d="M10.1591 5.32199C8.95013 5.32199 8.01413 5.80299 7.28613 6.66099L8.36513 7.50599C8.85913 6.92099 9.43113 6.64799 10.0161 6.64799C10.6921 6.64799 11.1081 6.98599 11.1081 7.55799C11.1081 8.77999 8.95013 8.59799 8.95013 10.821V11.328H10.4971V10.886C10.4971 9.31299 12.8501 9.52099 12.8501 7.42799C12.8501 6.32299 11.9401 5.32199 10.1591 5.32199ZM9.74313 12.589C9.15813 12.589 8.70313 13.057 8.70313 13.642C8.70313 14.214 9.15813 14.695 9.74313 14.695C10.3411 14.695 10.8091 14.214 10.8091 13.642C10.8091 13.057 10.3411 12.589 9.74313 12.589Z" fill="#D5D5D5"/>
</svg>
