<svg width="14" height="17" viewBox="0 0 14 17" fill="none" xmlns="http://www.w3.org/2000/svg">
<path d="M0.0433541 9.09523C-0.0604656 8.19546 0.0260508 7.32684 0.261376 6.52396C1.04348 3.8558 3.49709 1.8936 6.40751 1.859V0.114824C6.40751 0.0179256 6.52863 -0.0339843 6.60822 0.0248469L10.1969 2.66187C10.2558 2.70686 10.2558 2.79683 10.1969 2.83836L6.61168 5.47538C6.52863 5.53422 6.41097 5.48231 6.41097 5.38541V3.6447C4.49722 3.67584 2.86379 4.85593 2.16128 6.52396C1.89481 7.1538 1.75984 7.8494 1.79791 8.5796C1.84982 9.58319 2.22703 10.5072 2.82226 11.2547C3.14064 11.6527 3.06451 12.234 2.65269 12.5351C2.26164 12.8224 1.71485 12.7428 1.41377 12.3621C0.676655 11.4416 0.185241 10.3203 0.0433541 9.09523ZM10.4046 5.74532C11.0033 6.48936 11.3805 7.41681 11.4289 8.4204C11.467 9.15406 11.3286 9.84966 11.0656 10.476C10.363 12.1441 8.72961 13.3276 6.81586 13.3553V11.6146C6.81586 11.5177 6.69474 11.4658 6.61515 11.5246L3.02644 14.1616C2.96761 14.2066 2.96761 14.2966 3.02644 14.3381L6.61168 16.9752C6.69474 17.034 6.8124 16.9821 6.8124 16.8852V15.141C9.72282 15.1099 12.1799 13.1477 12.9585 10.476C13.1939 9.67316 13.2769 8.80454 13.1766 7.90477C13.0381 6.67969 12.5467 5.55844 11.8096 4.63791C11.5051 4.25723 10.9617 4.17764 10.5707 4.46487C10.1623 4.76595 10.0862 5.34734 10.4046 5.74532Z" fill="#D5D5D5"/>
</svg>
