<svg width="64" height="11" viewBox="0 0 64 11" fill="none" xmlns="http://www.w3.org/2000/svg">
<path d="M11.06 4.46663C11.0366 4.3949 10.9746 4.34259 10.8999 4.33169L7.31547 3.81077L5.71248 0.562774C5.67919 0.495009 5.61023 0.452209 5.53494 0.452209C5.45964 0.452209 5.39049 0.495009 5.3574 0.562774L3.75421 3.81097L0.169767 4.33189C0.0950663 4.34279 0.0332451 4.3949 0.0096658 4.46683C-0.0135172 4.53836 0.0057029 4.61722 0.0597965 4.66973L2.65371 7.19806L2.04125 10.7682C2.02856 10.8425 2.05908 10.9176 2.11991 10.962C2.18114 11.0068 2.26218 11.0125 2.32856 10.9771L5.53494 9.29166L8.74092 10.9771C8.76985 10.9923 8.80175 10.9999 8.83326 10.9999C8.87428 10.9999 8.91509 10.9872 8.94977 10.962C9.0108 10.9176 9.04131 10.8425 9.02843 10.7682L8.41616 7.19825L11.0101 4.66973C11.064 4.61682 11.0834 4.53816 11.06 4.46663Z" fill="#E6442F"/>
<path d="M24.1293 4.46663C24.106 4.3949 24.0439 4.34259 23.9692 4.33169L20.3848 3.81077L18.7818 0.562774C18.7485 0.495009 18.6796 0.452209 18.6043 0.452209C18.529 0.452209 18.4598 0.495009 18.4267 0.562774L16.8235 3.81097L13.2391 4.33189C13.1644 4.34279 13.1026 4.3949 13.079 4.46683C13.0558 4.53836 13.075 4.61722 13.1291 4.66973L15.723 7.19806L15.1106 10.7682C15.0979 10.8425 15.1284 10.9176 15.1892 10.962C15.2505 11.0068 15.3315 11.0125 15.3979 10.9771L18.6043 9.29166L21.8103 10.9771C21.8392 10.9923 21.8711 10.9999 21.9026 10.9999C21.9436 10.9999 21.9844 10.9872 22.0191 10.962C22.0801 10.9176 22.1106 10.8425 22.0978 10.7682L21.4855 7.19825L24.0794 4.66973C24.1333 4.61682 24.1527 4.53816 24.1293 4.46663Z" fill="#E6442F"/>
<path d="M37.1987 4.46663C37.1753 4.3949 37.1133 4.34259 37.0386 4.33169L33.4541 3.81077L31.8511 0.562774C31.8179 0.495009 31.7489 0.452209 31.6736 0.452209C31.5983 0.452209 31.5292 0.495009 31.4961 0.562774L29.8929 3.81097L26.3084 4.33189C26.2337 4.34279 26.1719 4.3949 26.1483 4.46683C26.1252 4.53836 26.1444 4.61722 26.1985 4.66973L28.7924 7.19806L28.1799 10.7682C28.1672 10.8425 28.1978 10.9176 28.2586 10.962C28.3198 11.0068 28.4008 11.0125 28.4672 10.9771L31.6736 9.29166L34.8796 10.9771C34.9085 10.9923 34.9404 10.9999 34.9719 10.9999C35.0129 10.9999 35.0538 10.9872 35.0884 10.962C35.1495 10.9176 35.18 10.8425 35.1671 10.7682L34.5548 7.19825L37.1488 4.66973C37.2026 4.61682 37.2221 4.53816 37.1987 4.46663Z" fill="#D5D5D5"/>
<path d="M50.268 4.46663C50.2446 4.3949 50.1826 4.34259 50.1079 4.33169L46.5235 3.81077L44.9205 0.562774C44.8872 0.495009 44.8182 0.452209 44.7429 0.452209C44.6677 0.452209 44.5985 0.495009 44.5654 0.562774L42.9622 3.81097L39.3778 4.33189C39.3031 4.34279 39.2413 4.3949 39.2177 4.46683C39.1945 4.53836 39.2137 4.61722 39.2678 4.66973L41.8617 7.19806L41.2493 10.7682C41.2366 10.8425 41.2671 10.9176 41.3279 10.962C41.3891 11.0068 41.4702 11.0125 41.5366 10.9771L44.7429 9.29166L47.9489 10.9771C47.9779 10.9923 48.0098 10.9999 48.0413 10.9999C48.0823 10.9999 48.1231 10.9872 48.1578 10.962C48.2188 10.9176 48.2493 10.8425 48.2364 10.7682L47.6242 7.19825L50.2181 4.66973C50.272 4.61682 50.2914 4.53816 50.268 4.46663Z" fill="#D5D5D5"/>
<path d="M63.3374 4.46663C63.314 4.3949 63.252 4.34259 63.1773 4.33169L59.5928 3.81077L57.9898 0.562774C57.9565 0.495009 57.8876 0.452209 57.8123 0.452209C57.737 0.452209 57.6678 0.495009 57.6347 0.562774L56.0316 3.81097L52.4471 4.33189C52.3724 4.34279 52.3106 4.3949 52.287 4.46683C52.2638 4.53836 52.283 4.61722 52.3371 4.66973L54.9311 7.19806L54.3186 10.7682C54.3059 10.8425 54.3364 10.9176 54.3973 10.962C54.4585 11.0068 54.5395 11.0125 54.6059 10.9771L57.8123 9.29166L61.0183 10.9771C61.0472 10.9923 61.0791 10.9999 61.1106 10.9999C61.1516 10.9999 61.1924 10.9872 61.2271 10.962C61.2881 10.9176 61.3187 10.8425 61.3058 10.7682L60.6935 7.19825L63.2874 4.66973C63.3413 4.61682 63.3607 4.53816 63.3374 4.46663Z" fill="#D5D5D5"/>
</svg>
