<svg width="18" height="18" viewBox="0 0 18 18" fill="none" xmlns="http://www.w3.org/2000/svg">
<rect width="18" height="18" rx="5" fill="#F0F0F0"/>
<path d="M8.387 10.327C8.387 9.94567 8.47133 9.63033 8.64 9.381C8.816 9.13167 9.069 8.85667 9.399 8.556C9.641 8.336 9.817 8.15267 9.927 8.006C10.0443 7.852 10.103 7.67967 10.103 7.489C10.103 7.21767 9.993 7.005 9.773 6.851C9.56033 6.68967 9.27433 6.609 8.915 6.609C8.57033 6.609 8.26233 6.68233 7.991 6.829C7.727 6.96833 7.50333 7.16633 7.32 7.423L5.989 6.642C6.297 6.17267 6.71133 5.80967 7.232 5.553C7.76 5.29633 8.38333 5.168 9.102 5.168C9.94533 5.168 10.62 5.34767 11.126 5.707C11.6393 6.06633 11.896 6.565 11.896 7.203C11.896 7.50367 11.8447 7.76767 11.742 7.995C11.6467 8.22233 11.5257 8.41667 11.379 8.578C11.2397 8.732 11.0563 8.91167 10.829 9.117C10.5577 9.359 10.3597 9.56433 10.235 9.733C10.1103 9.89433 10.048 10.0923 10.048 10.327H8.387ZM9.223 13.088C8.92233 13.088 8.66933 12.9927 8.464 12.802C8.266 12.604 8.167 12.3657 8.167 12.087C8.167 11.8083 8.266 11.5773 8.464 11.394C8.662 11.2033 8.915 11.108 9.223 11.108C9.531 11.108 9.784 11.2033 9.982 11.394C10.18 11.5773 10.279 11.8083 10.279 12.087C10.279 12.3657 10.1763 12.604 9.971 12.802C9.773 12.9927 9.52367 13.088 9.223 13.088Z" fill="#9B9B9B"/>
</svg>
