<svg width="16" height="14" viewBox="0 0 16 14" fill="none" xmlns="http://www.w3.org/2000/svg">
<path d="M7.942 1C4.50267 1 1.53267 3.00934 0.132 5.91334C-0.044 6.28 -0.044 6.72 0.132 7.08667C1.53267 9.99067 4.50267 12 7.942 12C11.3813 12 14.3513 9.99067 15.752 7.08667C15.928 6.72 15.928 6.28 15.752 5.91334C14.3513 3.00934 11.3813 1 7.942 1ZM7.942 9.8C6.12333 9.8 4.642 8.31867 4.642 6.5C4.642 4.68134 6.12333 3.2 7.942 3.2C9.76067 3.2 11.242 4.68134 11.242 6.5C11.242 8.31867 9.76067 9.8 7.942 9.8Z" fill="#D5D5D5"/>
<rect x="1" y="12.0208" width="17" height="2" transform="rotate(-45 1 12.0208)" fill="#D5D5D5"/>
<path d="M7.94204 8.47997C9.03556 8.47997 9.92204 7.59349 9.92204 6.49997C9.92204 5.40645 9.03556 4.51997 7.94204 4.51997C6.84851 4.51997 5.96204 5.40645 5.96204 6.49997C5.96204 7.59349 6.84851 8.47997 7.94204 8.47997Z" fill="#D5D5D5"/>
</svg>
