<svg width="16" height="11" viewBox="0 0 16 11" fill="none" xmlns="http://www.w3.org/2000/svg">
<path d="M7.942 0C4.50267 0 1.53267 2.00933 0.132 4.91333C-0.044 5.28 -0.044 5.72 0.132 6.08667C1.53267 8.99067 4.50267 11 7.942 11C11.3813 11 14.3513 8.99067 15.752 6.08667C15.928 5.72 15.928 5.28 15.752 4.91333C14.3513 2.00933 11.3813 0 7.942 0ZM7.942 8.8C6.12333 8.8 4.642 7.31867 4.642 5.5C4.642 3.68133 6.12333 2.2 7.942 2.2C9.76067 2.2 11.242 3.68133 11.242 5.5C11.242 7.31867 9.76067 8.8 7.942 8.8Z" fill="#D5D5D5"/>
<path d="M7.94204 7.47997C9.03556 7.47997 9.92204 6.59349 9.92204 5.49997C9.92204 4.40645 9.03556 3.51997 7.94204 3.51997C6.84851 3.51997 5.96204 4.40645 5.96204 5.49997C5.96204 6.59349 6.84851 7.47997 7.94204 7.47997Z" fill="#D5D5D5"/>
</svg>
